<svg id="Layer_1" data-name="Layer 1" xmlns="http://www.w3.org/2000/svg" viewBox="0 0 189 61"><defs><style>.cls-1{fill:#fdbb30}.cls-2{fill:#007dc3}</style></defs><path id="Path" class="cls-1" d="M73.33 7.44a.87.87 0 0 0 .92-.57l.47-5.29c0-.52-.64-.95-1.39-.95S72 1.06 72 1.58l.47 5.29a.87.87 0 0 0 .92.57z"/><path class="cls-1" d="M70.48 9.09a.87.87 0 0 0 0-1.08L66.07 5c-.45-.26-1.13 0-1.51.72s-.32 1.41.13 1.67l4.82 2.21a.86.86 0 0 0 .94-.51zm5.72-.01a.86.86 0 0 0 .94.51L82 7.36a1.22 1.22 0 0 0 .13-1.67C81.7 5 81 4.71 80.57 5l-4.34 3a.87.87 0 0 0 0 1.08zM73.33 14a.87.87 0 0 1 .92.57l.47 5.28c0 .52-.64.95-1.39.95S72 20.41 72 19.89l.47-5.28a.86.86 0 0 1 .92-.56zm2.87-1.61a.85.85 0 0 1 .94-.51L82 14.12c.45.26.52 1 .13 1.67s-1.06 1-1.51.71l-4.34-3a.87.87 0 0 1 0-1.08zm-5.72 0a.87.87 0 0 1 0 1.08l-4.41 3c-.45.26-1.13-.05-1.51-.72s-.32-1.41.13-1.67l4.82-2.24a.86.86 0 0 1 .94.51z"/><path id="Shape" class="cls-1" d="M83.22 15.93h.07c.08 0 .15 0 .15-.09s0-.1-.14-.1h-.08zm0 .35h-.14v-.64h.24a.31.31 0 0 1 .21 0 .16.16 0 0 1-.07.29.17.17 0 0 1 .12.15.42.42 0 0 0 0 .15h-.16a.58.58 0 0 1 0-.14c0-.07 0-.11-.13-.11h-.06zm.1-.83a.5.5 0 0 0 0 1 .51.51 0 0 0 .34-.85.47.47 0 0 0-.35-.15zm0-.13A.64.64 0 0 1 84 16a.63.63 0 0 1-.63.63.64.64 0 0 1-.64-.63.64.64 0 0 1 .59-.68z"/><path class="cls-2" d="M46.38 13.49a1.55 1.55 0 0 1-.48 1.17 1.51 1.51 0 0 1-1.19.43 1.09 1.09 0 0 1-.86-.3 1.11 1.11 0 0 1-.32-.86c0-1.21 1.33-1.54 2.85-1.53zm2.37-2.11c0-2-.86-3.74-3.73-3.74a6.82 6.82 0 0 0-3.29.78L42.2 10a4.79 4.79 0 0 1 2.4-.67c1.46 0 1.7.82 1.7 1.35v.13c-3.18 0-5.2 1.1-5.2 3.34a2.65 2.65 0 0 0 2.81 2.66 3.18 3.18 0 0 0 2.54-1.14h.06s.36 1.52 2.37.94a12.52 12.52 0 0 1-.14-2.12zM0 4.92s2.08 8.52 2.41 9.91c.39 1.61 1.09 2.17 3.1 1.81l1.27-5.29a34.07 34.07 0 0 0 .77-3.58h.07a33.73 33.73 0 0 0 .64 3.59s.53 2.4.8 3.66 1 2.05 3 1.62l3.08-11.72h-2.5L11.59 10c-.29 1.47-.54 2.63-.75 4-.18-1.34-.41-2.45-.7-3.89L9 4.92H6.4L5.22 10c-.33 1.53-.63 2.76-.84 4.07-.21-1.23-.48-2.78-.77-4.26 0 0-.7-3.6-1-4.84zm19.69 8.57a1.29 1.29 0 0 1-.06.48A1.65 1.65 0 0 1 18 15.09a1.1 1.1 0 0 1-.86-.3 1.14 1.14 0 0 1-.32-.86c0-1.21 1.34-1.54 2.85-1.53zm2.38-2.11c0-2-.85-3.74-3.73-3.74a6.85 6.85 0 0 0-3.29.78l.47 1.6a4.85 4.85 0 0 1 2.4-.67c1.46 0 1.7.82 1.7 1.35v.13c-3.17 0-5.19 1.1-5.19 3.34a2.59 2.59 0 0 0 .83 1.94 2.66 2.66 0 0 0 2 .72 3.2 3.2 0 0 0 2.54-1.14s.37 1.52 2.37.94a13.65 13.65 0 0 1-.14-2.12zm3.71 2.77V4.92H23.4v11.72h2.38v-2.49zm30.27-9.23v8.64a3.57 3.57 0 0 0 .71 2.54 2.59 2.59 0 0 0 1.9.74 5.51 5.51 0 0 0 1.72-.25v-1.86a3.41 3.41 0 0 1-.9.1c-.81 0-1.08-.52-1.08-1.58V9.93h2.07V7.69H58.4V4.92zm-6.14 2.91v8.81h2.46v-4.51a2.72 2.72 0 0 1 .05-.64 1.85 1.85 0 0 1 1.94-1.55 4.17 4.17 0 0 1 .71.07V7.69a1.94 1.94 0 0 0-.54-.05 2.57 2.57 0 0 0-2.39 1.85h-.07V7.83zm-22.75 0v8.81h2.39v-5.17a2 2 0 0 1 .11-.72 1.65 1.65 0 0 1 1.47-1.13c1 0 1.42.82 1.42 2v5h2.39v-5.2a2.46 2.46 0 0 1 .1-.72 1.51 1.51 0 0 1 1.44-1.07c1 0 1.45.8 1.45 2.19v4.82h2.39v-5.2c0-2.74-1.4-3.82-3-3.82a3.24 3.24 0 0 0-1.74.48 3.67 3.67 0 0 0-1.08 1.1A2.55 2.55 0 0 0 32 7.62 2.78 2.78 0 0 0 29.48 9V7.83zm-1.59 31.48c-.2-3.82-.44-8.37-.41-11.76H25c-.9 3.19-2.06 6.63-3.44 10.34L16.8 51.11h-2.67l-4.41-13c-1.27-3.81-2.38-7.36-3.18-10.59h-.08c-.08 3.39-.28 8-.53 12.07l-.7 11.67H1.91L3.81 24h4.45l4.65 13.18c1.09 3.38 2.09 6.38 2.75 9.2h.12c.69-2.75 1.66-5.72 2.87-9.17L23.51 24H28l1.7 27.24h-3.44zm10.64 2.22c0 4.28 2.47 7.51 5.94 7.51s5.94-3.17 5.94-7.62c0-3.32-1.66-7.51-5.86-7.51s-6 3.9-6 7.62m15.52-.2c0 7.23-5 10.38-9.74 10.38-5.29 0-9.37-3.88-9.37-10.06 0-6.55 4.28-10.39 9.7-10.39 5.61 0 9.41 4.09 9.41 10.07M54.27 37c0-2 0-3.68-.16-5.3h3.17l.18 3.23h.08A7.21 7.21 0 0 1 64 31.26c2.71 0 6.91 1.62 6.91 8.33v11.68h-3.57V40c0-3.17-1.18-5.78-4.53-5.78A5.1 5.1 0 0 0 58 37.88a5.27 5.27 0 0 0-.23 1.63v11.76h-3.52zm32.86 2.59c0-2.26-.93-5.78-4.93-5.78-3.6 0-5.17 3.32-5.46 5.78zM76.7 42.13c.08 4.81 3.17 6.79 6.71 6.79a12.81 12.81 0 0 0 5.42-1l.63 2.54A15.46 15.46 0 0 1 83 51.72c-6 0-9.62-4-9.62-9.9s3.47-10.54 9.17-10.54c6.39 0 8.08 5.61 8.08 9.21a11.35 11.35 0 0 1-.12 1.65zm19.23-10.42l4.28 11.56c.44 1.27.93 2.83 1.27 4h.08c.36-1.17.77-2.67 1.27-4.08l3.88-11.48h3.77l-5.34 14c-2.54 6.71-4.29 10.17-6.71 12.25A9.58 9.58 0 0 1 94 60.21l-.89-3a9.23 9.23 0 0 0 3.12-1.74 10.89 10.89 0 0 0 3-4 2.5 2.5 0 0 0 .28-.85 2.91 2.91 0 0 0-.24-.92L92 31.71zm36.51 18.67a17.25 17.25 0 0 1-7.19 1.34c-7.68 0-13.47-4.89-13.47-13.83 0-8.53 5.79-14.31 14.23-14.31a14.5 14.5 0 0 1 6.47 1.22l-.85 2.87a12.66 12.66 0 0 0-5.49-1.13c-6.39 0-10.63 4.08-10.63 11.23 0 6.67 3.81 11 10.47 11a14.16 14.16 0 0 0 5.71-1.13zM147 41.29c-3.88-.08-8.26.64-8.26 4.41a3.18 3.18 0 0 0 3.36 3.39 4.87 4.87 0 0 0 4.73-3.27 4 4 0 0 0 .2-1.13zm3.44 5.3a27.21 27.21 0 0 0 .32 4.68h-3.23l-.29-2.46h-.12a7.28 7.28 0 0 1-6 2.91 5.57 5.57 0 0 1-6-5.62c0-4.72 4.2-7.32 11.76-7.27v-.41c0-1.61-.45-4.52-4.45-4.52a9.79 9.79 0 0 0-5.08 1.45l-.76-2.35a12.18 12.18 0 0 1 6.41-1.71c6 0 7.43 4.08 7.43 8zm3.79-8.78c0-2.3 0-4.29-.16-6.1h3.11l.12 3.81h.17a5.86 5.86 0 0 1 5.41-4.28 3.45 3.45 0 0 1 1 .12v3.35a5 5 0 0 0-1.21-.12c-2.51 0-4.29 1.91-4.77 4.57a9.24 9.24 0 0 0-.16 1.66v10.45h-3.52zm26.19 1.86a6.24 6.24 0 0 0-.16-1.49 5.25 5.25 0 0 0-5.14-4.12c-3.68 0-5.86 3.23-5.86 7.56 0 4 1.94 7.23 5.78 7.23a5.34 5.34 0 0 0 5.22-4.24 6.11 6.11 0 0 0 .16-1.54zM184 22.58v23.64c0 1.74 0 3.72.16 5.09H181l-.16-3.4h-.08a7.21 7.21 0 0 1-6.67 3.81c-4.73 0-8.37-4-8.37-9.94 0-6.51 4-10.5 8.78-10.5a6.53 6.53 0 0 1 5.9 3v-11.7zm2.92.29a1.21 1.21 0 1 1-1.27 1.21 1.23 1.23 0 0 1 .38-.88 1.26 1.26 0 0 1 .89-.33zm0 .24a1 1 0 1 0 .81.95 1 1 0 0 0-.81-.95zm-.18 1.59h-.28v-1.19a2.31 2.31 0 0 1 .46-.05.69.69 0 0 1 .42.1.32.32 0 0 1 .12.26.31.31 0 0 1-.25.28.33.33 0 0 1 .22.29.75.75 0 0 0 .09.3h-.3a1.4 1.4 0 0 1-.09-.29c0-.13-.1-.19-.25-.19h-.13zm0-.67h.13c.15 0 .28-.05.28-.18s-.08-.19-.26-.19h-.15z"/></svg>